<?xml version="1.0" encoding="UTF-8" ?>
<!DOCTYPE svg PUBLIC "-//W3C//DTD SVG 1.1//EN" "http://www.w3.org/Graphics/SVG/1.1/DTD/svg11.dtd">
<svg width="35pt" height="59pt" viewBox="0 0 35 59" version="1.1" xmlns="http://www.w3.org/2000/svg">
<g id="#ffd800ff">
<path fill="#ffd800" opacity="1.00" d=" M 1.67 0.00 L 33.14 0.00 C 33.15 1.36 33.77 1.91 35.00 1.67 L 35.00 57.15 C 33.64 57.15 33.08 57.77 33.32 59.00 L 1.86 59.00 C 1.85 57.64 1.23 57.08 0.00 57.33 L 0.00 1.86 C 1.36 1.85 1.91 1.23 1.67 0.00 M 3.10 2.19 C 2.87 2.40 2.42 2.83 2.19 3.04 C 1.73 19.68 2.14 36.37 1.99 53.03 C 2.01 54.42 1.78 57.05 3.89 56.88 C 12.94 56.99 21.99 56.97 31.04 56.89 C 33.23 57.08 33.01 54.40 33.01 52.96 C 32.93 36.62 33.12 20.27 32.92 3.94 C 33.05 1.76 30.42 2.00 28.96 1.99 C 20.34 2.13 11.70 1.74 3.10 2.19 Z" />
<path fill="#ffd800" opacity="1.00" d=" M 10.16 6.01 C 15.05 5.99 19.94 5.99 24.83 6.01 C 24.84 6.50 24.84 7.49 24.85 7.98 C 19.95 8.01 15.05 8.01 10.16 7.98 C 10.16 7.49 10.16 6.51 10.16 6.01 Z" />
<path fill="#ffd800" opacity="1.00" d=" M 16.35 50.36 C 17.85 49.03 20.06 51.18 18.55 52.55 C 17.41 54.19 14.96 51.82 16.35 50.36 Z" />
</g>
</svg>
